<svg xmlns="http://www.w3.org/2000/svg" viewBox="0 0 400 300" fill="none">
  <!-- Background -->
  <rect x="30" y="30" width="340" height="240" rx="12" fill="#0f172a" stroke="#1e293b" stroke-width="2"/>

  <!-- Header -->
  <rect x="30" y="30" width="340" height="50" rx="12" fill="#1e293b"/>
  <text x="50" y="60" fill="#e2e8f0" font-size="14" font-family="system-ui" font-weight="bold">SEO • AEO • GEO • LLMO</text>
  <rect x="280" y="45" width="70" height="22" rx="4" fill="#3b82f6"/>
  <text x="315" y="60" fill="white" font-size="10" text-anchor="middle" font-family="system-ui">Analysis</text>

  <!-- Score Cards Grid -->
  <!-- SEO -->
  <rect x="50" y="100" width="145" height="70" rx="8" fill="#1e293b"/>
  <text x="65" y="122" fill="#3b82f6" font-size="12" font-family="system-ui" font-weight="bold">SEO Score</text>
  <text x="65" y="152" fill="#22c55e" font-size="28" font-family="system-ui" font-weight="bold">78</text>
  <text x="100" y="152" fill="#94a3b8" font-size="12" font-family="system-ui">/100</text>
  <rect x="130" y="135" width="50" height="8" rx="4" fill="#334155"/>
  <rect x="130" y="135" width="39" height="8" rx="4" fill="#22c55e"/>

  <!-- AEO -->
  <rect x="205" y="100" width="145" height="70" rx="8" fill="#1e293b"/>
  <text x="220" y="122" fill="#8b5cf6" font-size="12" font-family="system-ui" font-weight="bold">AEO Score</text>
  <text x="220" y="152" fill="#f59e0b" font-size="28" font-family="system-ui" font-weight="bold">65</text>
  <text x="255" y="152" fill="#94a3b8" font-size="12" font-family="system-ui">/100</text>
  <rect x="285" y="135" width="50" height="8" rx="4" fill="#334155"/>
  <rect x="285" y="135" width="32" height="8" rx="4" fill="#f59e0b"/>

  <!-- GEO -->
  <rect x="50" y="180" width="145" height="70" rx="8" fill="#1e293b"/>
  <text x="65" y="202" fill="#ec4899" font-size="12" font-family="system-ui" font-weight="bold">GEO Score</text>
  <text x="65" y="232" fill="#22c55e" font-size="28" font-family="system-ui" font-weight="bold">82</text>
  <text x="100" y="232" fill="#94a3b8" font-size="12" font-family="system-ui">/100</text>
  <rect x="130" y="215" width="50" height="8" rx="4" fill="#334155"/>
  <rect x="130" y="215" width="41" height="8" rx="4" fill="#22c55e"/>

  <!-- LLMO -->
  <rect x="205" y="180" width="145" height="70" rx="8" fill="#1e293b"/>
  <text x="220" y="202" fill="#06b6d4" font-size="12" font-family="system-ui" font-weight="bold">LLMO Score</text>
  <text x="220" y="232" fill="#3b82f6" font-size="28" font-family="system-ui" font-weight="bold">71</text>
  <text x="255" y="232" fill="#94a3b8" font-size="12" font-family="system-ui">/100</text>
  <rect x="285" y="215" width="50" height="8" rx="4" fill="#334155"/>
  <rect x="285" y="215" width="35" height="8" rx="4" fill="#3b82f6"/>

  <!-- Floating Icons -->
  <circle cx="385" cy="50" r="20" fill="#3b82f6" opacity="0.1"/>
  <circle cx="15" cy="150" r="15" fill="#8b5cf6" opacity="0.1"/>
  <circle cx="385" cy="250" r="25" fill="#22c55e" opacity="0.1"/>

  <!-- Search Icon -->
  <circle cx="385" cy="50" r="8" stroke="#3b82f6" stroke-width="2" fill="none"/>
  <line x1="391" y1="56" x2="396" y2="61" stroke="#3b82f6" stroke-width="2" stroke-linecap="round"/>
</svg>
