<svg xmlns="http://www.w3.org/2000/svg" viewBox="0 0 400 300" fill="none">
  <!-- Main Panel -->
  <rect x="30" y="20" width="340" height="260" rx="12" fill="#0f172a" stroke="#1e293b" stroke-width="2"/>

  <!-- Header -->
  <rect x="30" y="20" width="340" height="45" rx="12" fill="#1e293b"/>
  <text x="50" y="48" fill="#e2e8f0" font-size="14" font-family="system-ui" font-weight="bold">Bulk URL Audit</text>
  <rect x="280" y="32" width="70" height="22" rx="4" fill="#8b5cf6"/>
  <text x="315" y="47" fill="white" font-size="10" text-anchor="middle" font-family="system-ui">100 URLs</text>

  <!-- URL List -->
  <rect x="45" y="80" width="200" height="30" rx="4" fill="#1e293b"/>
  <text x="55" y="100" fill="#94a3b8" font-size="10" font-family="monospace">https://example.com/page1</text>
  <circle cx="230" cy="95" r="8" fill="#22c55e"/>
  <text x="230" y="99" fill="white" font-size="8" text-anchor="middle" font-family="system-ui">85</text>

  <rect x="45" y="115" width="200" height="30" rx="4" fill="#1e293b"/>
  <text x="55" y="135" fill="#94a3b8" font-size="10" font-family="monospace">https://example.com/page2</text>
  <circle cx="230" cy="130" r="8" fill="#f59e0b"/>
  <text x="230" y="134" fill="white" font-size="8" text-anchor="middle" font-family="system-ui">62</text>

  <rect x="45" y="150" width="200" height="30" rx="4" fill="#1e293b"/>
  <text x="55" y="170" fill="#94a3b8" font-size="10" font-family="monospace">https://example.com/page3</text>
  <circle cx="230" cy="165" r="8" fill="#ef4444"/>
  <text x="230" y="169" fill="white" font-size="8" text-anchor="middle" font-family="system-ui">28</text>

  <rect x="45" y="185" width="200" height="30" rx="4" fill="#1e293b"/>
  <text x="55" y="205" fill="#94a3b8" font-size="10" font-family="monospace">https://example.com/page4</text>
  <circle cx="230" cy="200" r="8" fill="#22c55e"/>
  <text x="230" y="204" fill="white" font-size="8" text-anchor="middle" font-family="system-ui">91</text>

  <text x="145" y="235" fill="#64748b" font-size="9" text-anchor="middle" font-family="system-ui">+ 96 more URLs...</text>

  <!-- Summary Panel -->
  <rect x="260" y="80" width="95" height="170" rx="8" fill="#1e293b"/>

  <!-- Summary Stats -->
  <text x="307" y="100" fill="#e2e8f0" font-size="11" text-anchor="middle" font-family="system-ui" font-weight="bold">Summary</text>

  <rect x="270" y="110" width="75" height="35" rx="4" fill="#0f172a"/>
  <text x="307" y="128" fill="#22c55e" font-size="16" text-anchor="middle" font-family="system-ui" font-weight="bold">72</text>
  <text x="307" y="140" fill="#94a3b8" font-size="8" text-anchor="middle" font-family="system-ui">Accessible</text>

  <rect x="270" y="150" width="75" height="35" rx="4" fill="#0f172a"/>
  <text x="307" y="168" fill="#ef4444" font-size="16" text-anchor="middle" font-family="system-ui" font-weight="bold">18</text>
  <text x="307" y="180" fill="#94a3b8" font-size="8" text-anchor="middle" font-family="system-ui">Blocked</text>

  <rect x="270" y="190" width="75" height="35" rx="4" fill="#0f172a"/>
  <text x="307" y="208" fill="#f59e0b" font-size="16" text-anchor="middle" font-family="system-ui" font-weight="bold">10</text>
  <text x="307" y="220" fill="#94a3b8" font-size="8" text-anchor="middle" font-family="system-ui">JS Required</text>

  <!-- Progress Bar -->
  <rect x="45" y="250" width="310" height="15" rx="4" fill="#1e293b"/>
  <rect x="45" y="250" width="248" height="15" rx="4" fill="#8b5cf6"/>
  <text x="200" y="261" fill="white" font-size="9" text-anchor="middle" font-family="system-ui" font-weight="bold">80% Complete</text>

  <!-- Floating Elements -->
  <circle cx="380" cy="40" r="15" fill="#8b5cf6" opacity="0.2"/>
  <circle cx="20" cy="150" r="12" fill="#22c55e" opacity="0.2"/>
</svg>
