<svg xmlns="http://www.w3.org/2000/svg" viewBox="0 0 400 300" fill="none">
  <!-- Timeline Line -->
  <line x1="50" y1="150" x2="350" y2="150" stroke="#334155" stroke-width="4" stroke-linecap="round"/>

  <!-- Screenshot 1 -->
  <rect x="40" y="50" width="80" height="60" rx="6" fill="#1e293b" stroke="#3b82f6" stroke-width="2"/>
  <rect x="45" y="55" width="70" height="10" rx="2" fill="#0f172a"/>
  <circle cx="50" cy="60" r="2" fill="#ef4444"/>
  <circle cx="57" cy="60" r="2" fill="#f59e0b"/>
  <circle cx="64" cy="60" r="2" fill="#22c55e"/>
  <rect x="50" y="70" width="60" height="35" rx="2" fill="#0f172a"/>
  <rect x="55" y="80" width="30" height="4" rx="1" fill="#3b82f6"/>
  <rect x="55" y="88" width="45" height="3" rx="1" fill="#334155"/>
  <rect x="55" y="94" width="40" height="3" rx="1" fill="#334155"/>
  <circle cx="80" cy="150" r="10" fill="#3b82f6"/>
  <text x="80" y="154" fill="white" font-size="10" text-anchor="middle" font-family="system-ui" font-weight="bold">1</text>
  <line x1="80" y1="110" x2="80" y2="140" stroke="#3b82f6" stroke-width="2"/>

  <!-- Screenshot 2 -->
  <rect x="130" y="170" width="80" height="60" rx="6" fill="#1e293b" stroke="#f59e0b" stroke-width="2"/>
  <rect x="135" y="175" width="70" height="10" rx="2" fill="#0f172a"/>
  <circle cx="140" cy="180" r="2" fill="#ef4444"/>
  <circle cx="147" cy="180" r="2" fill="#f59e0b"/>
  <circle cx="154" cy="180" r="2" fill="#22c55e"/>
  <rect x="140" y="190" width="60" height="35" rx="2" fill="#0f172a"/>
  <text x="170" y="212" fill="#f59e0b" font-size="12" text-anchor="middle" font-family="system-ui">Loading...</text>
  <circle cx="170" cy="150" r="10" fill="#f59e0b"/>
  <text x="170" y="154" fill="white" font-size="10" text-anchor="middle" font-family="system-ui" font-weight="bold">2</text>
  <line x1="170" y1="160" x2="170" y2="170" stroke="#f59e0b" stroke-width="2"/>

  <!-- Screenshot 3 -->
  <rect x="220" y="50" width="80" height="60" rx="6" fill="#1e293b" stroke="#8b5cf6" stroke-width="2"/>
  <rect x="225" y="55" width="70" height="10" rx="2" fill="#0f172a"/>
  <circle cx="230" cy="60" r="2" fill="#ef4444"/>
  <circle cx="237" cy="60" r="2" fill="#f59e0b"/>
  <circle cx="244" cy="60" r="2" fill="#22c55e"/>
  <rect x="230" y="70" width="60" height="35" rx="2" fill="#0f172a"/>
  <rect x="235" y="80" width="35" height="4" rx="1" fill="#8b5cf6"/>
  <rect x="235" y="88" width="50" height="3" rx="1" fill="#334155"/>
  <rect x="235" y="94" width="45" height="3" rx="1" fill="#334155"/>
  <circle cx="260" cy="150" r="10" fill="#8b5cf6"/>
  <text x="260" y="154" fill="white" font-size="10" text-anchor="middle" font-family="system-ui" font-weight="bold">3</text>
  <line x1="260" y1="110" x2="260" y2="140" stroke="#8b5cf6" stroke-width="2"/>

  <!-- Screenshot 4 - Final -->
  <rect x="310" y="170" width="80" height="60" rx="6" fill="#1e293b" stroke="#22c55e" stroke-width="2"/>
  <rect x="315" y="175" width="70" height="10" rx="2" fill="#0f172a"/>
  <circle cx="320" cy="180" r="2" fill="#ef4444"/>
  <circle cx="327" cy="180" r="2" fill="#f59e0b"/>
  <circle cx="334" cy="180" r="2" fill="#22c55e"/>
  <rect x="320" y="190" width="60" height="35" rx="2" fill="#0f172a"/>
  <path d="M340 205 L348 213 L362 199" stroke="#22c55e" stroke-width="3" stroke-linecap="round" stroke-linejoin="round"/>
  <circle cx="350" cy="150" r="10" fill="#22c55e"/>
  <path d="M346 150 L349 153 L356 147" stroke="white" stroke-width="2" stroke-linecap="round" stroke-linejoin="round"/>
  <line x1="350" y1="160" x2="350" y2="170" stroke="#22c55e" stroke-width="2"/>

  <!-- Labels -->
  <text x="80" y="35" fill="#94a3b8" font-size="9" text-anchor="middle" font-family="system-ui">Original</text>
  <text x="170" y="255" fill="#94a3b8" font-size="9" text-anchor="middle" font-family="system-ui">Redirect</text>
  <text x="260" y="35" fill="#94a3b8" font-size="9" text-anchor="middle" font-family="system-ui">HTTPS</text>
  <text x="350" y="255" fill="#22c55e" font-size="9" text-anchor="middle" font-family="system-ui" font-weight="bold">Final</text>

  <!-- Camera Icon -->
  <rect x="10" y="130" width="24" height="18" rx="3" fill="#3b82f6"/>
  <circle cx="22" cy="139" r="5" fill="#1e293b"/>
  <rect x="17" y="127" width="6" height="4" rx="1" fill="#3b82f6"/>
</svg>
